<?xml version="1.0" encoding="utf-8"?>
<!-- Generator: Adobe Illustrator 21.1.0, SVG Export Plug-In . SVG Version: 6.00 Build 0)  -->
<svg version="1.1" id="Capa_1" xmlns="http://www.w3.org/2000/svg" xmlns:xlink="http://www.w3.org/1999/xlink" x="0px" y="0px"
	 viewBox="0 0 512 512" style="enable-background:new 0 0 512 512;" xml:space="preserve">
<style type="text/css">
	.st0{fill:#FFFFFF;}
</style>
<g>
	<g>
		<path class="st0" d="M365.1,512c-18.7,0-41.3-4.7-66.1-14.1c-54.5-20.5-113.7-61.1-166.8-114.2C79.1,330.6,38.5,271.4,18,216.9
			c-18.7-49.5-18.7-90.2-0.2-108.7c2.7-2.7,5.4-5.6,8.2-8.5c17-17.8,36.5-38.1,61.6-37c17.5,0.7,34.5,11.6,51.9,33.2
			c51.3,63.9,28.2,86.6,1.4,113l-4.7,4.7c-4.4,4.4-12.7,24.7,64.4,101.7c25.2,25.2,46.6,43.6,63.7,54.7c10.8,7,30.1,17.6,38,9.7
			l4.8-4.8c26.4-26.8,49.1-49.8,113,1.5c21.6,17.4,32.5,34.3,33.2,51.9c1,25.4-19.2,44.6-37,61.6c-2.9,2.8-5.8,5.5-8.5,8.2
			C398.5,507.4,383.8,512,365.1,512z M85.9,77.7c-18.1,0-34.4,17.2-48.8,32.4c-2.9,3-5.7,6-8.5,8.8c-13.8,13.8-12.4,50.2,3.6,92.7
			c19.8,52.5,59.1,109.8,110.8,161.5c51.6,51.6,109,91,161.5,110.8c42.5,16.1,78.9,17.4,92.7,3.6c2.8-2.8,5.7-5.6,8.8-8.5
			c15.5-14.8,33.1-31.5,32.3-50c-0.5-12.8-9.8-26.5-27.6-40.7c-53.2-42.8-68.1-27.7-92.7-2.7l-4.8,4.9c-11.8,11.8-30.9,9.2-56.9-7.7
			c-18-11.7-40.3-30.8-66.2-56.7c-64-64-84.4-103.1-64.4-123.1l4.8-4.8c25.1-24.7,40.2-39.6-2.6-92.8c-14.3-17.8-28-27-40.8-27.6
			C86.6,77.7,86.2,77.7,85.9,77.7z"/>
	</g>
	<path class="st0" d="M419.2,371.2c32.7-29.3,54.4-67.7,62.7-110.9c20.8-108.1-50.2-213-158.4-233.8c-32.8-6.3-66.8-4.3-98.3,5.8
		c-4,1.3-8.2-0.9-9.5-4.9c-1.3-4,0.9-8.2,4.9-9.5c34-10.9,70.6-13,105.8-6.2c116.3,22.4,192.7,135.2,170.4,251.5
		c-9,46.5-32.3,87.8-67.5,119.4C413.7,396.4,404.7,384.2,419.2,371.2z"/>
	<g>
		<path class="st0" d="M290.4,222c1.5,0,2.7,0.4,3.6,1.3c0.9,0.8,1.3,2,1.3,3.4v8.4h-56v-4.6c0-0.9,0.2-1.9,0.6-3c0.4-1,1-2,1.9-2.8
			l24.8-24.9c2.1-2.1,3.9-4.1,5.6-6c1.6-1.9,3-3.8,4.1-5.7c1.1-1.9,1.9-3.8,2.5-5.7c0.6-1.9,0.9-4,0.9-6.1c0-2-0.3-3.7-0.8-5.2
			c-0.6-1.5-1.4-2.7-2.4-3.8c-1-1-2.3-1.8-3.7-2.3c-1.5-0.5-3.1-0.8-4.9-0.8c-1.7,0-3.2,0.2-4.6,0.7c-1.4,0.5-2.7,1.1-3.8,2
			c-1.1,0.8-2,1.8-2.8,3c-0.8,1.1-1.3,2.4-1.7,3.7c-0.6,1.7-1.5,2.9-2.5,3.4s-2.5,0.7-4.4,0.4l-7.3-1.3c0.6-3.9,1.7-7.4,3.3-10.3
			c1.6-3,3.6-5.4,6.1-7.4c2.4-2,5.2-3.5,8.4-4.5c3.1-1,6.5-1.5,10.1-1.5c3.8,0,7.2,0.6,10.3,1.7c3.1,1.1,5.8,2.7,8,4.7
			c2.2,2,4,4.5,5.2,7.3c1.2,2.9,1.9,6,1.9,9.5c0,3-0.4,5.8-1.3,8.4c-0.9,2.6-2.1,5-3.6,7.3c-1.5,2.3-3.2,4.6-5.2,6.8
			c-2,2.2-4.1,4.4-6.3,6.7l-18.4,18.8c1.8-0.5,3.5-0.9,5.3-1.2c1.8-0.3,3.4-0.4,5-0.4H290.4z"/>
		<path class="st0" d="M363.2,204.2v8.1c0,0.8-0.2,1.4-0.7,1.9c-0.5,0.5-1.2,0.8-2.1,0.8h-7.5V235h-12.1V215h-34.5
			c-0.9,0-1.8-0.3-2.5-0.9c-0.7-0.6-1.2-1.3-1.4-2.2l-1.5-7.1l38.7-51.7h13.2v51H363.2z M340.8,204.2v-26.7c0-2.5,0.2-5.3,0.5-8.4
			l-25.4,35.1H340.8z"/>
		<path class="st0" d="M386.9,183.2c2.3-2.1,4.7-3.8,7.5-5.1c2.7-1.3,5.9-2,9.5-2c3.2,0,6,0.5,8.4,1.6c2.4,1.1,4.5,2.6,6.1,4.5
			c1.6,1.9,2.9,4.3,3.7,6.9c0.8,2.7,1.3,5.7,1.3,8.9V235h-14v-36.9c0-3.5-0.8-6.3-2.4-8.2c-1.6-1.9-4.1-2.9-7.4-2.9
			c-2.4,0-4.7,0.5-6.8,1.6c-2.1,1.1-4.1,2.6-6,4.5V235h-14v-84h14V183.2z"/>
	</g>
</g>
</svg>
