<?xml version="1.0" encoding="utf-8"?>
<!-- Generator: Adobe Illustrator 16.0.0, SVG Export Plug-In . SVG Version: 6.00 Build 0)  -->
<!DOCTYPE svg PUBLIC "-//W3C//DTD SVG 1.1//EN" "http://www.w3.org/Graphics/SVG/1.1/DTD/svg11.dtd">
<svg version="1.1" id="Layer_1" xmlns="http://www.w3.org/2000/svg" xmlns:xlink="http://www.w3.org/1999/xlink" x="0px" y="0px"
	 width="300px" height="300px" viewBox="0 0 300 300" enable-background="new 0 0 300 300" xml:space="preserve">
<g>
	<circle fill="#D51426" cx="149.758" cy="150.241" r="146.23"/>
	<g>
		<g>
			<g>
				<g>
					<g>
						<path fill="#EAEAEA" d="M94.49,52.463c-3.619-1.896-6.133-5.374-7.196-9.356c3.4-1.644,7.383-1.715,11.002,0.184
							c3.618,1.895,6.131,5.372,7.196,9.356C102.092,54.29,98.106,54.36,94.49,52.463z"/>
						<path fill="#EAEAEA" d="M95.601,34.969c-1.686,4.069-4.779,6.893-8.323,8.091c-1.461-3.822-1.524-8.301,0.161-12.369
							c1.688-4.067,4.78-6.892,8.326-8.09C97.226,26.424,97.289,30.903,95.601,34.969z"/>
					</g>
					<g>
						<path fill="#EAEAEA" d="M80.156,60.647c-3.856-1.162-6.869-4.094-8.534-7.81c3.096-2.282,7.008-3.129,10.864-1.967
							c3.858,1.163,6.869,4.094,8.534,7.811C87.926,60.962,84.011,61.81,80.156,60.647z"/>
						<path fill="#EAEAEA" d="M78.549,43.202c-1.033,4.336-3.643,7.721-6.948,9.592c-2.03-3.479-2.784-7.876-1.75-12.212
							c1.033-4.333,3.643-7.72,6.948-9.59C78.829,34.468,79.582,38.868,78.549,43.202z"/>
					</g>
					<g>
						<path fill="#EAEAEA" d="M67.296,71.526c-3.977-0.391-7.396-2.691-9.61-6.025c2.695-2.852,6.417-4.448,10.394-4.058
							c3.978,0.392,7.395,2.691,9.61,6.025C74.995,70.32,71.273,71.917,67.296,71.526z"/>
						<path fill="#EAEAEA" d="M63.017,54.66c-0.349,4.471-2.395,8.314-5.359,10.802c-2.537-3.029-3.959-7.213-3.61-11.685
							c0.349-4.47,2.395-8.313,5.361-10.803C61.943,46.004,63.366,50.19,63.017,54.66z"/>
					</g>
					<g>
						<path fill="#EAEAEA" d="M56.298,84.771c-3.977,0.392-7.699-1.208-10.396-4.058c2.215-3.334,5.635-5.635,9.612-6.026
							c3.977-0.392,7.699,1.206,10.393,4.059C63.694,82.08,60.276,84.379,56.298,84.771z"/>
						<path fill="#EAEAEA" d="M49.481,68.996c0.346,4.47-1.074,8.655-3.61,11.684c-2.967-2.487-5.012-6.331-5.361-10.802
							c-0.347-4.47,1.074-8.657,3.61-11.685C47.087,60.682,49.132,64.525,49.481,68.996z"/>
					</g>
					<g>
						<path fill="#EAEAEA" d="M47.5,99.978c-3.855,1.163-7.768,0.316-10.864-1.967c1.666-3.715,4.676-6.647,8.534-7.81
							c3.855-1.162,7.768-0.314,10.862,1.966C54.368,95.883,51.355,98.816,47.5,99.978z"/>
						<path fill="#EAEAEA" d="M38.348,85.772c1.033,4.336,0.279,8.734-1.75,12.214c-3.305-1.874-5.915-5.257-6.948-9.595
							c-1.033-4.333-0.28-8.731,1.75-12.209C34.707,78.053,37.315,81.439,38.348,85.772z"/>
					</g>
					<g>
						<path fill="#EAEAEA" d="M41.166,116.686c-3.619,1.896-7.602,1.828-11.003,0.182c1.065-3.983,3.58-7.462,7.198-9.358
							c3.617-1.896,7.602-1.826,11.001-0.182C47.296,111.312,44.785,114.789,41.166,116.686z"/>
						<path fill="#EAEAEA" d="M29.96,104.481c1.686,4.068,1.623,8.547,0.162,12.37c-3.544-1.199-6.637-4.024-8.324-8.09
							c-1.687-4.068-1.625-8.546-0.164-12.369C25.181,97.59,28.272,100.415,29.96,104.481z"/>
					</g>
					<g>
						<path fill="#EAEAEA" d="M37.489,134.385c-3.271,2.575-7.206,3.284-10.807,2.325c0.436-4.128,2.373-8.042,5.643-10.616
							c3.27-2.577,7.204-3.284,10.807-2.326C42.697,127.896,40.759,131.809,37.489,134.385z"/>
						<path fill="#EAEAEA" d="M24.568,124.557c2.29,3.673,2.92,8.099,2.071,12.147c-3.676-0.489-7.156-2.668-9.447-6.342
							c-2.29-3.677-2.92-8.099-2.071-12.148C18.796,118.701,22.279,120.879,24.568,124.557z"/>
					</g>
					<g>
						<path fill="#EAEAEA" d="M36.583,152.539c-2.822,3.174-6.589,4.641-10.284,4.403c-0.209-4.151,1.094-8.386,3.916-11.562
							c2.825-3.171,6.588-4.639,10.284-4.402C40.71,145.134,39.405,149.365,36.583,152.539z"/>
						<path fill="#EAEAEA" d="M22.34,145.38c2.822,3.176,4.127,7.411,3.916,11.562c-3.695,0.237-7.459-1.229-10.282-4.403
							c-2.824-3.174-4.127-7.405-3.916-11.561C15.751,140.742,19.518,142.209,22.34,145.38z"/>
					</g>
					<g>
						<path fill="#EAEAEA" d="M38.483,170.46c-2.289,3.677-5.771,5.855-9.446,6.342c-0.848-4.048-0.219-8.475,2.071-12.147
							c2.29-3.68,5.77-5.853,9.446-6.343C41.405,162.363,40.773,166.782,38.483,170.46z"/>
						<path fill="#EAEAEA" d="M23.352,166.19c3.271,2.577,5.208,6.49,5.642,10.618c-3.603,0.959-7.537,0.25-10.807-2.326
							c-3.27-2.574-5.208-6.489-5.641-10.619C16.148,162.906,20.081,163.615,23.352,166.19z"/>
					</g>
					<g>
						<path fill="#EAEAEA" d="M43.146,187.739c-1.688,4.068-4.779,6.891-8.323,8.09c-1.462-3.821-1.526-8.298,0.163-12.368
							c1.687-4.069,4.779-6.894,8.322-8.092C44.77,179.191,44.833,183.67,43.146,187.739z"/>
						<path fill="#EAEAEA" d="M27.583,186.489c3.619,1.899,6.132,5.372,7.196,9.356c-3.399,1.644-7.383,1.714-11.001-0.183
							c-3.619-1.896-6.13-5.373-7.196-9.357C19.981,184.664,23.965,184.592,27.583,186.489z"/>
					</g>
					<g>
						<path fill="#EAEAEA" d="M50.426,203.851c-1.034,4.334-3.642,7.722-6.948,9.594c-2.03-3.478-2.782-7.878-1.75-12.212
							c1.034-4.339,3.644-7.723,6.948-9.592C50.704,195.116,51.458,199.518,50.426,203.851z"/>
						<path fill="#EAEAEA" d="M34.907,205.66c3.855,1.159,6.869,4.09,8.532,7.809c-3.094,2.28-7.007,3.13-10.862,1.97
							c-3.857-1.166-6.868-4.097-8.533-7.813C27.137,205.345,31.051,204.497,34.907,205.66z"/>
					</g>
					<g>
						<path fill="#EAEAEA" d="M60.104,218.307c-0.349,4.474-2.395,8.314-5.361,10.806c-2.534-3.032-3.957-7.215-3.608-11.686
							c0.347-4.471,2.393-8.313,5.359-10.805C59.03,209.652,60.452,213.839,60.104,218.307z"/>
						<path fill="#EAEAEA" d="M45.1,223.116c3.978,0.39,7.396,2.693,9.61,6.025c-2.696,2.851-6.419,4.45-10.396,4.063
							c-3.976-0.395-7.396-2.696-9.609-6.026C37.401,224.325,41.124,222.728,45.1,223.116z"/>
					</g>
					<g>
						<path fill="#EAEAEA" d="M71.886,230.67c0.348,4.471-1.075,8.655-3.611,11.688c-2.966-2.489-5.012-6.332-5.358-10.804
							c-0.349-4.47,1.071-8.655,3.608-11.685C69.49,222.357,71.536,226.201,71.886,230.67z"/>
						<path fill="#EAEAEA" d="M57.853,238.335c3.978-0.39,7.699,1.208,10.394,4.059c-2.212,3.335-5.633,5.634-9.609,6.025
							c-3.977,0.392-7.699-1.205-10.394-4.058C50.458,241.028,53.875,238.729,57.853,238.335z"/>
					</g>
					<g>
						<path fill="#EAEAEA" d="M85.414,240.561c1.033,4.337,0.279,8.735-1.75,12.212c-3.306-1.871-5.915-5.255-6.948-9.592
							c-1.033-4.334-0.28-8.731,1.751-12.212C81.771,232.842,84.38,236.227,85.414,240.561z"/>
						<path fill="#EAEAEA" d="M72.777,250.849c3.855-1.159,7.77-0.313,10.863,1.97c-1.666,3.717-4.676,6.646-8.534,7.81
							c-3.856,1.158-7.769,0.313-10.864-1.967C65.908,254.944,68.921,252.01,72.777,250.849z"/>
					</g>
					<g>
						<path fill="#EAEAEA" d="M100.275,247.683c1.687,4.067,1.624,8.547,0.162,12.368c-3.544-1.197-6.635-4.022-8.323-8.09
							c-1.686-4.066-1.625-8.545-0.162-12.369C95.495,240.79,98.587,243.617,100.275,247.683z"/>
						<path fill="#EAEAEA" d="M89.42,260.282c3.617-1.896,7.603-1.826,11.002-0.187c-1.066,3.984-3.579,7.464-7.196,9.357
							c-3.619,1.897-7.602,1.825-11.004,0.182C83.29,265.654,85.802,262.179,89.42,260.282z"/>
					</g>
				</g>
				<path fill="#EAEAEA" d="M113.419,37.587c-3.75,1.535-7.715,1.074-10.973-0.896c1.37-3.865,4.144-7.082,7.894-8.617
					c3.752-1.534,7.714-1.073,10.974,0.896C119.943,32.835,117.172,36.051,113.419,37.587z"/>
			</g>
			<path fill="#EAEAEA" d="M100.123,261.228c-1.238-0.486-2.353-0.906-3.343-1.32c-0.805-0.349-1.608-0.629-2.413-1.044
				c-3.838-1.534-7.489-3.411-11.018-5.43c-1.672-0.902-3.28-1.878-4.828-2.921c-1.733-1.116-3.404-2.229-5.013-3.481
				c-1.919-1.32-3.775-2.781-5.569-4.313c-1.301-1.043-2.6-2.158-3.901-3.339c0,0,0,0-0.061,0c-3.343-3.131-6.563-6.404-9.532-9.952
				c-1.115-1.251-2.229-2.57-3.281-3.891c-2.909-3.762-5.695-7.724-8.108-11.833c-0.99-1.599-1.918-3.127-2.786-4.798
				c-2.289-4.107-4.332-8.42-6.126-12.805c-0.744-1.946-1.485-3.896-2.166-5.843c-1.485-4.316-2.786-8.771-3.777-13.29
				c-0.494-2.227-0.927-4.454-1.361-6.68c-0.741-4.383-1.237-8.836-1.545-13.359c-0.125-2.364-0.25-4.66-0.25-7.028v-1.046
				c0-4.173,0.186-8.276,0.62-12.384c0.185-2.364,0.494-4.661,0.865-6.953c0.681-4.386,1.611-8.769,2.725-13.016
				c0.558-2.225,1.238-4.382,1.919-6.538c1.362-4.245,2.97-8.35,4.765-12.385c0.867-1.95,1.733-3.827,2.723-5.706
				c2.042-4.037,4.271-7.864,6.747-11.551c1.051-1.599,2.104-3.129,3.217-4.661c2.724-3.757,5.633-7.306,8.729-10.645
				c1.175-1.253,2.412-2.575,3.714-3.828c3.216-3.201,6.683-6.191,10.273-8.906c1.486-1.114,2.971-2.227,4.519-3.271
				c0,0,0-0.068,0.061-0.068c3.59-2.436,7.304-4.663,11.141-6.611c1.795-0.973,3.654-1.879,5.509-2.713
				c3.343-1.46,6.747-2.784,10.275-3.896c2.908-0.975,5.879-1.74,8.851-2.437l0.371,1.741c-2.847,0.625-5.632,1.39-8.356,2.296
				c-4.023,1.25-7.921,2.783-11.698,4.522c-1.486,0.696-2.971,1.392-4.395,2.227c-3.775,1.876-7.366,4.036-10.833,6.471
				c-1.547,1.043-3.093,2.157-4.578,3.409c-3.343,2.505-6.563,5.289-9.596,8.279c-1.485,1.324-2.847,2.785-4.208,4.247
				c-2.97,3.199-5.756,6.609-8.355,10.157c-1.175,1.601-2.289,3.201-3.343,4.872c-2.537,3.826-4.889,7.791-6.931,11.967
				c-0.868,1.671-1.609,3.337-2.353,5.01c-2.042,4.521-3.774,9.113-5.261,13.914c-0.495,1.531-0.928,3.132-1.299,4.733
				c-1.301,4.87-2.292,9.81-2.97,14.891c-0.249,1.599-0.434,3.199-0.558,4.799c-0.433,3.966-0.62,8-0.62,12.035
				c0,1.118,0,2.228,0.063,3.341c0,1.604,0.124,3.201,0.185,4.732c0.31,4.938,0.929,9.812,1.857,14.539
				c0.31,1.743,0.618,3.482,1.051,5.223c0.991,4.519,2.29,8.975,3.838,13.289c0.62,1.879,1.3,3.688,2.042,5.495
				c1.671,4.175,3.591,8.212,5.696,12.109c0.927,1.807,1.918,3.477,2.97,5.217c2.29,3.687,4.705,7.304,7.365,10.714
				c1.238,1.599,2.539,3.201,3.837,4.73c2.786,3.272,5.757,6.334,8.853,9.185c1.425,1.324,2.909,2.646,4.455,3.968
				c1.488,1.183,3.033,2.363,4.581,3.549c1.918,1.459,3.899,2.78,6.003,4.172c1.485,0.906,3.033,1.881,4.58,2.784
				c3.961,2.228,8.109,4.242,12.441,5.986c0.247,0.068,0.496,0.206,0.743,0.275c1.052,0.418,2.104,0.836,3.341,1.321h0.063
				C108.912,262.617,108.17,264.289,100.123,261.228z"/>
		</g>
		<g>
			<g>
				<g>
					<g>
						<path fill="#EAEAEA" d="M205.027,52.463c3.616-1.896,6.13-5.374,7.195-9.356c-3.398-1.644-7.385-1.715-11.005,0.184
							c-3.615,1.895-6.13,5.372-7.195,9.356C197.425,54.29,201.409,54.36,205.027,52.463z"/>
						<path fill="#EAEAEA" d="M203.914,34.969c1.688,4.069,4.779,6.893,8.323,8.091c1.462-3.822,1.525-8.301-0.162-12.369
							c-1.688-4.067-4.78-6.892-8.323-8.09C202.29,26.424,202.227,30.903,203.914,34.969z"/>
					</g>
					<g>
						<path fill="#EAEAEA" d="M219.359,60.647c3.856-1.162,6.867-4.094,8.533-7.81c-3.097-2.282-7.008-3.129-10.864-1.967
							c-3.854,1.163-6.867,4.094-8.533,7.811C211.591,60.962,215.503,61.81,219.359,60.647z"/>
						<path fill="#EAEAEA" d="M220.968,43.202c1.033,4.336,3.64,7.721,6.948,9.592c2.029-3.479,2.78-7.876,1.747-12.212
							c-1.033-4.333-3.641-7.72-6.947-9.59C220.688,34.468,219.935,38.868,220.968,43.202z"/>
					</g>
					<g>
						<path fill="#EAEAEA" d="M232.221,71.526c3.978-0.391,7.395-2.691,9.61-6.025c-2.696-2.852-6.42-4.448-10.397-4.058
							c-3.975,0.392-7.394,2.691-9.609,6.025C224.521,70.32,228.242,71.917,232.221,71.526z"/>
						<path fill="#EAEAEA" d="M236.498,54.66c0.347,4.471,2.395,8.314,5.359,10.802c2.536-3.029,3.958-7.213,3.609-11.685
							c-0.347-4.47-2.393-8.313-5.359-10.803C237.572,46.004,236.15,50.19,236.498,54.66z"/>
					</g>
					<g>
						<path fill="#EAEAEA" d="M243.217,84.771c3.977,0.392,7.7-1.208,10.394-4.058c-2.214-3.334-5.633-5.635-9.608-6.026
							c-3.978-0.392-7.699,1.206-10.396,4.059C235.82,82.08,239.238,84.379,243.217,84.771z"/>
						<path fill="#EAEAEA" d="M250.036,68.996c-0.351,4.47,1.074,8.655,3.608,11.684c2.966-2.487,5.013-6.331,5.36-10.802
							c0.349-4.47-1.074-8.657-3.61-11.685C252.43,60.682,250.382,64.525,250.036,68.996z"/>
					</g>
					<g>
						<path fill="#EAEAEA" d="M252.016,99.978c3.855,1.163,7.769,0.316,10.862-1.967c-1.665-3.715-4.676-6.647-8.532-7.81
							c-3.857-1.162-7.768-0.314-10.863,1.966C245.147,95.883,248.159,98.816,252.016,99.978z"/>
						<path fill="#EAEAEA" d="M261.165,85.772c-1.031,4.336-0.277,8.734,1.753,12.214c3.303-1.874,5.913-5.257,6.947-9.595
							c1.033-4.333,0.279-8.731-1.752-12.209C264.81,78.053,262.2,81.439,261.165,85.772z"/>
					</g>
					<g>
						<path fill="#EAEAEA" d="M258.351,116.686c3.616,1.896,7.602,1.828,11.002,0.182c-1.067-3.983-3.578-7.462-7.198-9.358
							c-3.617-1.896-7.602-1.826-11.002-0.182C252.219,111.312,254.732,114.789,258.351,116.686z"/>
						<path fill="#EAEAEA" d="M269.556,104.481c-1.688,4.068-1.624,8.547-0.164,12.37c3.547-1.199,6.639-4.024,8.326-8.09
							c1.687-4.068,1.622-8.546,0.161-12.369C274.337,97.59,271.243,100.415,269.556,104.481z"/>
					</g>
					<g>
						<path fill="#EAEAEA" d="M262.026,134.385c3.27,2.575,7.204,3.284,10.807,2.325c-0.434-4.128-2.373-8.042-5.642-10.616
							c-3.271-2.577-7.206-3.284-10.809-2.326C256.818,127.896,258.756,131.809,262.026,134.385z"/>
						<path fill="#EAEAEA" d="M274.947,124.557c-2.291,3.673-2.921,8.099-2.072,12.147c3.676-0.489,7.158-2.668,9.448-6.342
							c2.29-3.677,2.92-8.099,2.069-12.148C280.718,118.701,277.237,120.879,274.947,124.557z"/>
					</g>
					<g>
						<path fill="#EAEAEA" d="M262.932,152.539c2.824,3.174,6.589,4.641,10.283,4.403c0.211-4.151-1.094-8.386-3.915-11.562
							c-2.823-3.171-6.589-4.639-10.282-4.402C258.806,145.134,260.109,149.365,262.932,152.539z"/>
						<path fill="#EAEAEA" d="M277.175,145.38c-2.823,3.176-4.124,7.411-3.915,11.562c3.693,0.237,7.459-1.229,10.282-4.403
							s4.128-7.405,3.917-11.561C283.763,140.742,279.999,142.209,277.175,145.38z"/>
					</g>
					<g>
						<path fill="#EAEAEA" d="M261.03,170.46c2.29,3.677,5.772,5.855,9.447,6.342c0.851-4.048,0.22-8.475-2.069-12.147
							c-2.291-3.68-5.773-5.853-9.448-6.343C258.111,162.363,258.741,166.782,261.03,170.46z"/>
						<path fill="#EAEAEA" d="M276.164,166.19c-3.271,2.577-5.21,6.49-5.643,10.618c3.603,0.959,7.536,0.25,10.807-2.326
							c3.271-2.574,5.21-6.489,5.644-10.619C283.368,162.906,279.434,163.615,276.164,166.19z"/>
					</g>
					<g>
						<path fill="#EAEAEA" d="M256.368,187.739c1.689,4.068,4.781,6.891,8.326,8.09c1.459-3.821,1.522-8.298-0.165-12.368
							c-1.687-4.069-4.778-6.894-8.323-8.092C254.746,179.191,254.684,183.67,256.368,187.739z"/>
						<path fill="#EAEAEA" d="M271.931,186.489c-3.617,1.899-6.131,5.372-7.195,9.356c3.398,1.644,7.382,1.714,11.001-0.183
							c3.618-1.896,6.134-5.373,7.197-9.357C279.533,184.664,275.549,184.592,271.931,186.489z"/>
					</g>
					<g>
						<path fill="#EAEAEA" d="M249.09,203.851c1.033,4.334,3.644,7.722,6.946,9.594c2.031-3.478,2.783-7.878,1.75-12.212
							c-1.032-4.339-3.642-7.723-6.947-9.592C248.81,195.116,248.056,199.518,249.09,203.851z"/>
						<path fill="#EAEAEA" d="M264.608,205.66c-3.857,1.159-6.867,4.09-8.533,7.809c3.095,2.28,7.006,3.13,10.865,1.97
							c3.854-1.166,6.866-4.097,8.529-7.813C272.377,205.345,268.464,204.497,264.608,205.66z"/>
					</g>
					<g>
						<path fill="#EAEAEA" d="M239.41,218.307c0.35,4.474,2.396,8.314,5.362,10.806c2.536-3.032,3.958-7.215,3.609-11.686
							s-2.394-8.313-5.362-10.805C240.483,209.652,239.064,213.839,239.41,218.307z"/>
						<path fill="#EAEAEA" d="M254.415,223.116c-3.977,0.39-7.397,2.693-9.609,6.025c2.695,2.851,6.417,4.45,10.396,4.063
							c3.976-0.395,7.394-2.696,9.608-6.026C262.115,224.325,258.393,222.728,254.415,223.116z"/>
					</g>
					<g>
						<path fill="#EAEAEA" d="M227.63,230.67c-0.349,4.471,1.073,8.655,3.61,11.688c2.965-2.489,5.013-6.332,5.361-10.804
							c0.346-4.47-1.074-8.655-3.612-11.685C230.024,222.357,227.978,226.201,227.63,230.67z"/>
						<path fill="#EAEAEA" d="M241.661,238.335c-3.974-0.39-7.698,1.208-10.394,4.059c2.215,3.335,5.632,5.634,9.609,6.025
							c3.979,0.392,7.7-1.205,10.396-4.058C249.06,241.028,245.639,238.729,241.661,238.335z"/>
					</g>
					<g>
						<path fill="#EAEAEA" d="M214.104,240.561c-1.033,4.337-0.279,8.735,1.75,12.212c3.304-1.871,5.914-5.255,6.945-9.592
							c1.034-4.334,0.282-8.731-1.748-12.212C217.743,232.842,215.137,236.227,214.104,240.561z"/>
						<path fill="#EAEAEA" d="M226.738,250.849c-3.856-1.159-7.77-0.313-10.865,1.97c1.667,3.717,4.679,6.646,8.534,7.81
							c3.855,1.158,7.769,0.313,10.864-1.967C233.605,254.944,230.594,252.01,226.738,250.849z"/>
					</g>
					<g>
						<path fill="#EAEAEA" d="M199.24,247.683c-1.687,4.067-1.626,8.547-0.161,12.368c3.542-1.197,6.634-4.022,8.322-8.09
							c1.688-4.066,1.624-8.545,0.163-12.369C204.02,240.79,200.927,243.617,199.24,247.683z"/>
						<path fill="#EAEAEA" d="M210.095,260.282c-3.617-1.896-7.602-1.826-11.004-0.187c1.068,3.984,3.58,7.464,7.199,9.357
							c3.617,1.897,7.603,1.825,11.001,0.182C216.227,265.654,213.715,262.179,210.095,260.282z"/>
					</g>
				</g>
				<path fill="#EAEAEA" d="M186.096,37.587c3.751,1.535,7.714,1.074,10.975-0.896c-1.372-3.865-4.144-7.082-7.896-8.617
					c-3.75-1.534-7.714-1.073-10.973,0.896C179.57,32.835,182.344,36.051,186.096,37.587z"/>
			</g>
			<path fill="#EAEAEA" d="M274.437,148.856v1.183c0,2.299-0.124,4.596-0.247,6.891c-0.31,4.523-0.807,9.044-1.61,13.428v0.069
				c-0.37,2.227-0.805,4.382-1.299,6.542c-0.991,4.52-2.291,8.974-3.776,13.29c-0.682,1.947-1.425,3.896-2.165,5.843
				c-1.796,4.385-3.775,8.629-6.065,12.732c0,0,0,0.072-0.063,0.072c-0.806,1.671-1.734,3.268-2.725,4.871
				c-2.477,4.036-5.136,7.93-8.046,11.616c-1.051,1.39-2.166,2.714-3.343,4.034c-2.971,3.482-6.127,6.821-9.47,9.884
				c-1.299,1.181-2.659,2.364-4.022,3.407h-0.062c-1.856,1.601-3.651,3.063-5.633,4.454c-1.549,1.184-3.218,2.297-4.89,3.34
				c-1.547,1.043-3.155,2.019-4.828,2.921c-3.527,2.019-7.117,3.896-10.954,5.496h-0.063c-0.805,0.349-1.61,0.629-2.413,0.978
				c-1.054,0.414-2.106,0.834-3.345,1.32h-0.06c-7.985,3.062-8.729,1.39-0.496-1.741c1.236-0.485,2.353-0.903,3.343-1.321
				c0.31-0.137,0.558-0.207,0.868-0.349c4.27-1.737,8.355-3.686,12.314-5.913c1.61-0.976,3.158-1.878,4.705-2.921
				c0.063,0,0.063-0.071,0.063-0.071c1.98-1.254,3.898-2.574,5.755-3.964c1.548-1.117,3.095-2.298,4.581-3.549
				c1.546-1.255,3.033-2.576,4.518-3.968c3.095-2.851,6.065-5.912,8.853-9.185c1.361-1.601,2.597-3.132,3.897-4.801l0.061-0.07
				c2.601-3.406,5.017-6.953,7.243-10.573c1.115-1.74,2.104-3.548,3.093-5.429c2.107-3.826,3.963-7.791,5.633-11.897
				c0.684-1.738,1.363-3.408,1.984-5.217v-0.068c1.546-4.384,2.846-8.908,3.896-13.499c0.434-1.74,0.743-3.479,1.053-5.223
				c0-0.064,0-0.064,0-0.138c0.93-4.661,1.547-9.532,1.856-14.401c0.063-1.458,0.124-2.922,0.187-4.453v-0.07
				c0.06-1.182,0.06-2.294,0.06-3.55c0-4.035-0.183-8.069-0.616-12.035c-0.124-1.53-0.31-3.062-0.497-4.592
				c-0.681-5.15-1.669-10.16-3.033-15.098c-0.369-1.601-0.803-3.202-1.299-4.733c-1.484-4.8-3.216-9.392-5.261-13.914
				c-0.681-1.672-1.485-3.271-2.289-4.871c-2.106-4.176-4.396-8.21-6.993-12.106c-1.052-1.671-2.167-3.271-3.343-4.872
				c-2.601-3.548-5.386-6.958-8.357-10.157c-1.362-1.462-2.723-2.922-4.208-4.247l-0.063-0.068c-3.03-2.994-6.189-5.706-9.53-8.211
				c-1.485-1.252-3.033-2.366-4.581-3.409c-3.465-2.435-7.055-4.594-10.831-6.471c-1.423-0.834-2.847-1.531-4.332-2.157l-0.062-0.07
				c-3.775-1.739-7.676-3.271-11.698-4.522c-2.725-0.906-5.508-1.671-8.356-2.296l0.31-1.741c3.033,0.697,6.003,1.532,8.913,2.505
				c3.527,1.043,6.933,2.367,10.274,3.897h0.062c1.856,0.835,3.652,1.739,5.447,2.644c3.898,2.017,7.676,4.314,11.328,6.819
				c1.484,0.974,2.906,2.086,4.33,3.13c3.651,2.854,7.118,5.776,10.399,9.046l0.063,0.068c1.174,1.183,2.352,2.436,3.526,3.688
				c3.157,3.339,6.067,6.889,8.79,10.715c1.114,1.461,2.166,2.993,3.155,4.522c2.478,3.688,4.705,7.514,6.749,11.551v0.07
				c0.99,1.809,1.917,3.687,2.722,5.636c1.855,4.035,3.467,8.209,4.767,12.522v0.071c0.743,2.156,1.36,4.243,1.917,6.4
				c1.177,4.244,2.043,8.628,2.724,13.01c0.372,2.296,0.681,4.592,0.866,6.888C274.252,140.58,274.437,144.683,274.437,148.856z"/>
		</g>
	</g>
	<g>
		<path fill="#FFFFFF" d="M85.19,135.601c0.434-0.526,0.85-1.036,1.252-1.531c0.402-0.493,0.772-0.99,1.113-1.483
			c-2.845,1.514-6.073,2.27-9.69,2.27c-2.196,0-4.39-0.393-6.585-1.182c-2.194-0.789-4.182-1.985-5.959-3.594
			c-1.777-1.606-3.224-3.63-4.335-6.073c-1.113-2.444-1.67-5.333-1.67-8.671c0-3.062,0.564-5.953,1.693-8.673
			s2.736-5.101,4.823-7.142c2.087-2.04,4.584-3.656,7.49-4.846c2.904-1.19,6.151-1.784,9.739-1.784c3.646,0,6.907,0.557,9.784,1.668
			c2.875,1.114,5.31,2.675,7.301,4.686c1.995,2.009,3.525,4.396,4.592,7.164c1.066,2.768,1.6,5.818,1.6,9.157
			c0,4.424-0.665,8.38-1.994,11.875c-1.329,3.494-3.104,6.787-5.333,9.875L84.45,157.999c-0.65,0.897-1.63,1.653-2.946,2.272
			c-1.313,0.616-2.805,0.926-4.474,0.926H63.768L85.19,135.601z M73.69,114.269c0,6.741,3.122,10.11,9.37,10.11
			c3.061,0,5.416-0.921,7.069-2.761c1.654-1.837,2.482-4.289,2.482-7.349c0-1.64-0.238-3.082-0.718-4.334
			c-0.479-1.252-1.145-2.296-1.995-3.132c-0.85-0.833-1.878-1.467-3.083-1.902c-1.207-0.432-2.52-0.648-3.942-0.648
			c-1.455,0-2.745,0.254-3.874,0.765c-1.129,0.509-2.086,1.214-2.875,2.111c-0.789,0.895-1.391,1.955-1.809,3.175
			C73.9,111.527,73.69,112.848,73.69,114.269z"/>
		<path fill="#FFFFFF" d="M138.982,135.601c0.434-0.526,0.85-1.036,1.252-1.531c0.4-0.493,0.771-0.99,1.111-1.483
			c-2.844,1.514-6.071,2.27-9.69,2.27c-2.194,0-4.39-0.393-6.584-1.182c-2.196-0.789-4.183-1.985-5.958-3.594
			c-1.777-1.606-3.224-3.63-4.338-6.073c-1.111-2.444-1.667-5.333-1.667-8.671c0-3.062,0.563-5.953,1.691-8.673
			c1.128-2.72,2.735-5.101,4.824-7.142c2.087-2.04,4.583-3.656,7.488-4.846s6.151-1.784,9.739-1.784
			c3.647,0,6.907,0.557,9.784,1.668c2.875,1.114,5.31,2.675,7.302,4.686c1.995,2.009,3.522,4.396,4.592,7.164
			c1.067,2.768,1.6,5.818,1.6,9.157c0,4.424-0.665,8.38-1.994,11.875c-1.329,3.494-3.106,6.787-5.332,9.875l-14.562,20.683
			c-0.65,0.897-1.629,1.653-2.947,2.272c-1.313,0.616-2.803,0.926-4.471,0.926h-13.265L138.982,135.601z M127.482,114.269
			c0,6.741,3.122,10.11,9.369,10.11c3.062,0,5.416-0.921,7.068-2.761c1.656-1.837,2.484-4.289,2.484-7.349
			c0-1.64-0.242-3.082-0.719-4.334c-0.48-1.252-1.147-2.296-1.996-3.132c-0.849-0.833-1.878-1.467-3.081-1.902
			c-1.208-0.432-2.521-0.648-3.943-0.648c-1.454,0-2.744,0.254-3.874,0.765c-1.126,0.509-2.085,1.214-2.875,2.111
			c-0.789,0.895-1.39,1.955-1.808,3.175C127.694,111.527,127.482,112.848,127.482,114.269z"/>
		<path fill="#FFFFFF" d="M199.498,110.004c0,2.471-0.449,4.728-1.344,6.768c-0.897,2.042-2.089,3.797-3.572,5.264
			c-1.483,1.47-3.208,2.605-5.171,3.409c-1.964,0.805-4.012,1.206-6.143,1.206c-2.351,0-4.506-0.4-6.472-1.206
			c-1.96-0.803-3.661-1.938-5.1-3.409c-1.437-1.467-2.558-3.222-3.363-5.264c-0.804-2.04-1.202-4.296-1.202-6.768
			c0-2.567,0.398-4.894,1.202-6.981c0.806-2.085,1.927-3.871,3.363-5.355c1.438-1.485,3.14-2.636,5.1-3.455
			c1.966-0.818,4.121-1.229,6.472-1.229c2.35,0,4.52,0.411,6.517,1.229c1.993,0.819,3.707,1.97,5.145,3.455
			c1.438,1.484,2.558,3.27,3.363,5.355C199.098,105.11,199.498,107.438,199.498,110.004z M220.736,95.767
			c0.462-0.527,1.035-1.013,1.714-1.461c0.684-0.448,1.626-0.673,2.831-0.673h10.48l-50.917,65.525
			c-0.462,0.587-1.044,1.073-1.738,1.458c-0.695,0.389-1.54,0.581-2.528,0.581h-10.759L220.736,95.767z M188.462,110.004
			c0-1.579-0.132-2.884-0.396-3.92c-0.262-1.035-0.627-1.862-1.09-2.479c-0.462-0.62-1.011-1.051-1.646-1.299
			s-1.319-0.372-2.063-0.372s-1.423,0.123-2.04,0.372c-0.62,0.249-1.146,0.679-1.576,1.299c-0.437,0.617-0.774,1.444-1.021,2.479
			c-0.247,1.037-0.371,2.341-0.371,3.92c0,1.482,0.124,2.719,0.371,3.708c0.247,0.992,0.585,1.779,1.021,2.366
			c0.431,0.587,0.956,1.005,1.576,1.251c0.617,0.249,1.297,0.372,2.04,0.372s1.428-0.123,2.063-0.372
			c0.635-0.247,1.184-0.665,1.646-1.251c0.463-0.587,0.828-1.374,1.09-2.366C188.33,112.723,188.462,111.487,188.462,110.004z
			 M238.356,145.337c0,2.475-0.448,4.74-1.342,6.795c-0.898,2.058-2.086,3.816-3.573,5.284c-1.482,1.472-3.207,2.605-5.171,3.41
			c-1.963,0.803-4.012,1.203-6.142,1.203c-2.349,0-4.506-0.4-6.47-1.203c-1.963-0.805-3.663-1.938-5.102-3.41
			c-1.437-1.468-2.556-3.227-3.361-5.284c-0.804-2.055-1.205-4.321-1.205-6.795c0-2.566,0.401-4.891,1.205-6.977
			c0.806-2.089,1.925-3.874,3.361-5.358c1.438-1.482,3.139-2.633,5.102-3.453c1.964-0.819,4.121-1.228,6.47-1.228
			c2.348,0,4.522,0.409,6.513,1.228c1.997,0.82,3.711,1.971,5.147,3.453c1.438,1.484,2.562,3.269,3.364,5.358
			C237.953,140.447,238.356,142.771,238.356,145.337z M227.321,145.337c0-1.545-0.132-2.833-0.395-3.871
			c-0.262-1.035-0.627-1.861-1.09-2.48c-0.462-0.618-1.012-1.051-1.646-1.298c-0.634-0.25-1.32-0.372-2.062-0.372
			c-0.743,0-1.423,0.122-2.04,0.372c-0.622,0.247-1.146,0.68-1.577,1.298c-0.435,0.619-0.772,1.446-1.021,2.48
			c-0.246,1.038-0.372,2.326-0.372,3.871c0,1.486,0.126,2.722,0.372,3.711c0.248,0.991,0.586,1.778,1.021,2.366
			c0.432,0.589,0.955,1.004,1.577,1.252c0.617,0.248,1.297,0.369,2.04,0.369c0.741,0,1.428-0.121,2.062-0.369
			c0.635-0.248,1.185-0.663,1.646-1.252c0.463-0.587,0.828-1.375,1.09-2.366C227.189,148.06,227.321,146.824,227.321,145.337z"/>
	</g>
	<g>
		<path fill="#FFFFFF" d="M65.389,170.687c0,0.146-0.024,0.287-0.071,0.426c-0.047,0.138-0.111,0.269-0.191,0.393l-8.439,11.889
			h8.537v2.063H53.347v-1.004c0-0.139,0.022-0.268,0.066-0.388c0.043-0.12,0.102-0.235,0.174-0.344l8.472-11.922h-8.242v-2.063
			h11.572V170.687z"/>
		<path fill="#FFFFFF" d="M81.054,185.457h-1.976c-0.226,0-0.408-0.057-0.546-0.169c-0.138-0.113-0.244-0.253-0.316-0.421
			l-1.31-3.472h-6.769l-1.31,3.472c-0.059,0.146-0.16,0.28-0.306,0.404c-0.146,0.124-0.328,0.186-0.546,0.186H66l6.233-15.721h2.587
			L81.054,185.457z M76.218,179.562l-2.162-5.742c-0.174-0.443-0.353-1.008-0.535-1.692c-0.08,0.343-0.167,0.657-0.262,0.944
			c-0.095,0.288-0.182,0.541-0.262,0.759l-2.162,5.731H76.218z"/>
		<path fill="#FFFFFF" d="M96.688,177.597c0,1.165-0.189,2.229-0.568,3.193s-0.911,1.792-1.599,2.483s-1.514,1.229-2.478,1.61
			c-0.965,0.382-2.036,0.573-3.215,0.573h-5.939v-15.721h5.939c1.179,0,2.25,0.191,3.215,0.573c0.964,0.382,1.79,0.919,2.478,1.61
			s1.221,1.52,1.599,2.483C96.498,175.368,96.688,176.433,96.688,177.597z M94.078,177.597c0-0.902-0.122-1.714-0.366-2.435
			c-0.244-0.721-0.593-1.328-1.048-1.823c-0.455-0.495-1.006-0.875-1.654-1.141c-0.648-0.266-1.375-0.398-2.184-0.398h-3.374v11.594
			h3.374c0.808,0,1.536-0.131,2.184-0.393c0.647-0.263,1.199-0.643,1.654-1.142c0.455-0.498,0.804-1.105,1.048-1.822
			C93.957,179.32,94.078,178.507,94.078,177.597z"/>
		<path fill="#FFFFFF" d="M114.264,177.597c0,1.165-0.189,2.238-0.568,3.221s-0.912,1.828-1.599,2.538
			c-0.688,0.71-1.514,1.265-2.478,1.665c-0.965,0.4-2.036,0.601-3.215,0.601c-1.172,0-2.24-0.2-3.204-0.601
			s-1.792-0.955-2.484-1.665s-1.226-1.556-1.604-2.538s-0.568-2.056-0.568-3.221c0-1.164,0.189-2.238,0.568-3.221
			s0.913-1.83,1.604-2.544c0.691-0.713,1.52-1.27,2.484-1.67s2.032-0.601,3.204-0.601c1.179,0,2.25,0.2,3.215,0.601
			c0.964,0.4,1.79,0.957,2.478,1.67c0.688,0.714,1.221,1.562,1.599,2.544S114.264,176.433,114.264,177.597z M111.655,177.597
			c0-0.902-0.122-1.714-0.366-2.435c-0.244-0.721-0.593-1.332-1.048-1.834c-0.455-0.502-1.006-0.888-1.654-1.157
			c-0.648-0.27-1.375-0.404-2.184-0.404c-0.801,0-1.525,0.135-2.172,0.404c-0.648,0.27-1.201,0.655-1.66,1.157
			s-0.812,1.113-1.059,1.834c-0.248,0.721-0.372,1.532-0.372,2.435c0,0.91,0.124,1.725,0.372,2.445
			c0.247,0.721,0.6,1.33,1.059,1.829c0.458,0.498,1.012,0.88,1.66,1.146c0.647,0.267,1.372,0.399,2.172,0.399
			c0.808,0,1.536-0.133,2.184-0.399c0.647-0.266,1.199-0.647,1.654-1.146c0.455-0.499,0.804-1.108,1.048-1.829
			C111.533,179.321,111.655,178.507,111.655,177.597z"/>
		<path fill="#FFFFFF" d="M137.452,169.736l-4.891,15.721h-2.304l-3.69-11.288c-0.043-0.124-0.085-0.259-0.125-0.404
			s-0.078-0.302-0.115-0.47c-0.036,0.168-0.075,0.324-0.114,0.47c-0.04,0.146-0.082,0.28-0.125,0.404l-3.723,11.288h-2.303
			l-4.891-15.721h2.14c0.219,0,0.402,0.053,0.552,0.158c0.149,0.105,0.249,0.25,0.3,0.432l2.948,10.076
			c0.058,0.219,0.113,0.455,0.164,0.71c0.051,0.255,0.102,0.521,0.153,0.797c0.051-0.276,0.107-0.544,0.169-0.803
			c0.062-0.258,0.129-0.493,0.202-0.704l3.373-10.076c0.051-0.146,0.153-0.28,0.306-0.404s0.335-0.186,0.546-0.186h0.743
			c0.226,0,0.407,0.057,0.546,0.169c0.138,0.113,0.244,0.253,0.316,0.421l3.362,10.076c0.073,0.211,0.14,0.438,0.202,0.683
			c0.062,0.244,0.118,0.5,0.169,0.77c0.051-0.27,0.1-0.525,0.147-0.77s0.1-0.472,0.159-0.683l2.937-10.076
			c0.043-0.16,0.144-0.299,0.3-0.415c0.156-0.116,0.34-0.175,0.551-0.175H137.452z"/>
		<path fill="#FFFFFF" d="M154.067,177.597c0,1.165-0.189,2.238-0.568,3.221c-0.378,0.982-0.911,1.828-1.599,2.538
			c-0.688,0.71-1.514,1.265-2.478,1.665c-0.965,0.4-2.036,0.601-3.215,0.601c-1.172,0-2.24-0.2-3.204-0.601
			s-1.792-0.955-2.484-1.665s-1.226-1.556-1.604-2.538s-0.568-2.056-0.568-3.221c0-1.164,0.189-2.238,0.568-3.221
			s0.913-1.83,1.604-2.544c0.691-0.713,1.52-1.27,2.484-1.67s2.032-0.601,3.204-0.601c1.179,0,2.25,0.2,3.215,0.601
			c0.964,0.4,1.79,0.957,2.478,1.67c0.688,0.714,1.221,1.562,1.599,2.544C153.878,175.358,154.067,176.433,154.067,177.597z
			 M151.458,177.597c0-0.902-0.122-1.714-0.366-2.435c-0.243-0.721-0.593-1.332-1.047-1.834c-0.455-0.502-1.006-0.888-1.654-1.157
			c-0.648-0.27-1.375-0.404-2.184-0.404c-0.801,0-1.525,0.135-2.172,0.404c-0.648,0.27-1.201,0.655-1.66,1.157
			s-0.812,1.113-1.059,1.834c-0.248,0.721-0.372,1.532-0.372,2.435c0,0.91,0.124,1.725,0.372,2.445
			c0.247,0.721,0.6,1.33,1.059,1.829c0.458,0.498,1.012,0.88,1.66,1.146c0.647,0.267,1.372,0.399,2.172,0.399
			c0.808,0,1.536-0.133,2.184-0.399c0.647-0.266,1.199-0.647,1.654-1.146c0.455-0.499,0.804-1.108,1.047-1.829
			C151.336,179.321,151.458,178.507,151.458,177.597z"/>
		<path fill="#FFFFFF" d="M165.945,183.317v2.14h-9.083v-15.721h2.555v13.581H165.945z"/>
		<path fill="#FFFFFF" d="M182.277,177.597c0,1.165-0.189,2.238-0.567,3.221c-0.379,0.982-0.912,1.828-1.6,2.538
			s-1.514,1.265-2.479,1.665c-0.964,0.4-2.036,0.601-3.215,0.601c-1.172,0-2.24-0.2-3.204-0.601c-0.965-0.4-1.792-0.955-2.483-1.665
			s-1.227-1.556-1.605-2.538c-0.378-0.982-0.567-2.056-0.567-3.221c0-1.164,0.189-2.238,0.567-3.221
			c0.379-0.982,0.914-1.83,1.605-2.544c0.691-0.713,1.519-1.27,2.483-1.67c0.964-0.4,2.032-0.601,3.204-0.601
			c1.179,0,2.251,0.2,3.215,0.601c0.965,0.4,1.791,0.957,2.479,1.67c0.688,0.714,1.221,1.562,1.6,2.544
			C182.088,175.358,182.277,176.433,182.277,177.597z M179.668,177.597c0-0.902-0.122-1.714-0.365-2.435
			c-0.244-0.721-0.594-1.332-1.049-1.834c-0.454-0.502-1.006-0.888-1.653-1.157c-0.648-0.27-1.376-0.404-2.184-0.404
			c-0.801,0-1.524,0.135-2.173,0.404c-0.647,0.27-1.2,0.655-1.659,1.157c-0.458,0.502-0.812,1.113-1.059,1.834
			c-0.248,0.721-0.371,1.532-0.371,2.435c0,0.91,0.123,1.725,0.371,2.445c0.247,0.721,0.601,1.33,1.059,1.829
			c0.459,0.498,1.012,0.88,1.659,1.146c0.648,0.267,1.372,0.399,2.173,0.399c0.808,0,1.535-0.133,2.184-0.399
			c0.647-0.266,1.199-0.647,1.653-1.146c0.455-0.499,0.805-1.108,1.049-1.829C179.546,179.321,179.668,178.507,179.668,177.597z"/>
		<path fill="#FFFFFF" d="M198.085,169.736v15.721h-1.299c-0.196,0-0.364-0.034-0.502-0.104c-0.139-0.069-0.27-0.184-0.394-0.344
			l-8.636-11.092c0.022,0.211,0.039,0.42,0.05,0.627c0.011,0.208,0.017,0.398,0.017,0.573v10.339h-2.249v-15.721h1.331
			c0.109,0,0.202,0.006,0.279,0.017c0.076,0.011,0.146,0.031,0.213,0.06c0.065,0.029,0.127,0.073,0.186,0.131
			c0.058,0.059,0.12,0.132,0.186,0.219l8.646,11.103c-0.022-0.226-0.039-0.447-0.05-0.666c-0.011-0.218-0.017-0.422-0.017-0.611
			v-10.251H198.085z"/>
		<path fill="#FFFFFF" d="M208.183,179.3v6.157h-2.544V179.3l-5.742-9.563h2.238c0.226,0,0.403,0.055,0.534,0.164
			c0.132,0.109,0.24,0.247,0.328,0.415l3.221,5.633c0.146,0.284,0.278,0.553,0.398,0.808s0.228,0.506,0.321,0.754
			c0.08-0.255,0.179-0.508,0.295-0.759s0.248-0.519,0.394-0.803l3.198-5.633c0.073-0.146,0.179-0.279,0.316-0.398
			c0.139-0.12,0.317-0.181,0.535-0.181h2.249L208.183,179.3z"/>
		<path fill="#FFFFFF" d="M225.771,181.952c0.138,0,0.258,0.055,0.36,0.164l1.015,1.103c-0.641,0.771-1.426,1.367-2.357,1.785
			c-0.932,0.419-2.046,0.628-3.341,0.628c-1.15,0-2.189-0.198-3.117-0.595c-0.928-0.397-1.72-0.95-2.374-1.66
			c-0.655-0.709-1.159-1.556-1.513-2.538c-0.353-0.982-0.529-2.063-0.529-3.242s0.188-2.262,0.563-3.248s0.902-1.834,1.583-2.544
			c0.681-0.709,1.495-1.261,2.445-1.653c0.95-0.394,1.996-0.59,3.139-0.59c1.136,0,2.138,0.184,3.008,0.552
			c0.869,0.367,1.625,0.856,2.266,1.468l-0.841,1.19c-0.059,0.08-0.128,0.149-0.208,0.207c-0.08,0.059-0.189,0.088-0.327,0.088
			c-0.146,0-0.312-0.067-0.497-0.202s-0.422-0.284-0.709-0.447c-0.288-0.164-0.648-0.313-1.081-0.448
			c-0.434-0.135-0.974-0.202-1.621-0.202c-0.75,0-1.438,0.132-2.063,0.394s-1.164,0.644-1.615,1.146
			c-0.452,0.502-0.803,1.113-1.054,1.834s-0.377,1.539-0.377,2.456c0,0.925,0.131,1.749,0.393,2.473
			c0.263,0.725,0.623,1.336,1.081,1.834c0.459,0.499,0.997,0.879,1.616,1.141c0.618,0.263,1.284,0.394,1.998,0.394
			c0.437,0,0.827-0.023,1.173-0.071c0.346-0.047,0.664-0.123,0.955-0.229c0.291-0.105,0.566-0.238,0.824-0.398
			c0.259-0.159,0.516-0.356,0.771-0.589C225.479,182.019,225.625,181.952,225.771,181.952z"/>
		<path fill="#FFFFFF" d="M242.375,169.736v15.721h-2.555v-6.998h-7.893v6.998h-2.565v-15.721h2.565v6.878h7.893v-6.878H242.375z"/>
		<path fill="#FFFFFF" d="M96.021,202.662h0.731c0.276,0,0.502-0.038,0.677-0.114c0.175-0.076,0.331-0.198,0.47-0.365l4.76-5.678
			c0.167-0.211,0.34-0.358,0.519-0.441c0.178-0.084,0.402-0.126,0.671-0.126h2.184l-5.623,6.638c-0.153,0.189-0.3,0.348-0.442,0.475
			c-0.142,0.128-0.297,0.231-0.464,0.312c0.219,0.08,0.415,0.19,0.59,0.333c0.174,0.142,0.346,0.329,0.513,0.563l5.83,7.401h-2.227
			c-0.16,0-0.297-0.011-0.41-0.033c-0.113-0.021-0.211-0.054-0.294-0.098c-0.084-0.044-0.157-0.099-0.218-0.164
			c-0.062-0.065-0.119-0.138-0.169-0.218l-4.913-6.005c-0.073-0.095-0.146-0.175-0.218-0.24c-0.073-0.065-0.159-0.12-0.257-0.164
			c-0.098-0.043-0.209-0.074-0.333-0.093c-0.124-0.018-0.269-0.027-0.437-0.027h-0.939v7.042h-2.555v-15.721h2.555V202.662z"/>
		<path fill="#FFFFFF" d="M117.276,209.519v2.14h-9.083v-15.721h2.555v13.581H117.276z"/>
		<path fill="#FFFFFF" d="M122.036,211.658h-2.565v-15.721h2.565V211.658z"/>
		<path fill="#FFFFFF" d="M135.584,209.595l-0.011,2.063h-9.804v-15.721h9.804v2.063h-7.238v4.738h5.786v1.997h-5.786v4.858H135.584
			z"/>
		<path fill="#FFFFFF" d="M151.359,195.938v15.721h-1.299c-0.197,0-0.364-0.034-0.502-0.104s-0.269-0.184-0.393-0.344l-8.635-11.092
			c0.022,0.211,0.038,0.42,0.049,0.627c0.011,0.208,0.016,0.398,0.016,0.573v10.339h-2.249v-15.721h1.332
			c0.109,0,0.202,0.006,0.278,0.017c0.077,0.011,0.147,0.031,0.213,0.06c0.065,0.029,0.127,0.073,0.186,0.131
			c0.058,0.059,0.12,0.132,0.186,0.219l8.646,11.103c-0.022-0.226-0.038-0.447-0.049-0.666c-0.011-0.218-0.016-0.422-0.016-0.611
			v-10.251H151.359z"/>
		<path fill="#FFFFFF" d="M165.922,198.066h-4.9v13.592h-2.545v-13.592h-4.912v-2.129h12.357V198.066z"/>
		<path fill="#FFFFFF" d="M182.266,203.798c0,1.165-0.189,2.238-0.567,3.221c-0.379,0.982-0.912,1.828-1.6,2.538
			s-1.514,1.265-2.479,1.665c-0.964,0.4-2.036,0.601-3.215,0.601c-1.172,0-2.24-0.2-3.204-0.601c-0.965-0.4-1.792-0.955-2.483-1.665
			s-1.227-1.556-1.605-2.538c-0.378-0.982-0.567-2.056-0.567-3.221c0-1.164,0.189-2.238,0.567-3.221
			c0.379-0.982,0.914-1.83,1.605-2.544c0.691-0.713,1.519-1.27,2.483-1.67c0.964-0.4,2.032-0.601,3.204-0.601
			c1.179,0,2.251,0.2,3.215,0.601c0.965,0.4,1.791,0.957,2.479,1.67c0.688,0.714,1.221,1.562,1.6,2.544
			C182.076,201.56,182.266,202.634,182.266,203.798z M179.656,203.798c0-0.902-0.122-1.714-0.365-2.435
			c-0.244-0.721-0.594-1.332-1.049-1.834c-0.454-0.502-1.006-0.888-1.653-1.157c-0.648-0.27-1.376-0.404-2.184-0.404
			c-0.801,0-1.524,0.135-2.173,0.404c-0.647,0.27-1.2,0.655-1.659,1.157c-0.458,0.502-0.812,1.113-1.059,1.834
			c-0.248,0.721-0.371,1.532-0.371,2.435c0,0.91,0.123,1.725,0.371,2.445c0.247,0.721,0.601,1.33,1.059,1.829
			c0.459,0.498,1.012,0.88,1.659,1.146c0.648,0.267,1.372,0.399,2.173,0.399c0.808,0,1.535-0.133,2.184-0.399
			c0.647-0.266,1.199-0.647,1.653-1.146c0.455-0.499,0.805-1.108,1.049-1.829C179.534,205.522,179.656,204.708,179.656,203.798z
			 M178.805,191.385l-3.548,3.123c-0.131,0.116-0.255,0.188-0.371,0.218s-0.262,0.044-0.437,0.044h-1.692l2.401-2.98
			c0.065-0.095,0.132-0.167,0.197-0.219c0.065-0.051,0.138-0.091,0.218-0.12c0.08-0.028,0.169-0.047,0.268-0.054
			c0.099-0.008,0.213-0.012,0.344-0.012H178.805z"/>
		<path fill="#FFFFFF" d="M205.453,195.938l-4.892,15.721h-2.303l-3.69-11.288c-0.044-0.124-0.086-0.259-0.125-0.404
			c-0.04-0.146-0.079-0.302-0.115-0.47c-0.036,0.168-0.074,0.324-0.114,0.47s-0.082,0.28-0.126,0.404l-3.723,11.288h-2.304
			l-4.891-15.721h2.14c0.219,0,0.402,0.053,0.552,0.158c0.148,0.105,0.249,0.25,0.3,0.432l2.948,10.076
			c0.058,0.219,0.112,0.455,0.163,0.71s0.103,0.521,0.153,0.797c0.051-0.276,0.107-0.544,0.169-0.803
			c0.062-0.258,0.129-0.493,0.202-0.704l3.373-10.076c0.051-0.146,0.153-0.28,0.306-0.404c0.153-0.124,0.335-0.186,0.546-0.186
			h0.742c0.226,0,0.408,0.057,0.546,0.169c0.139,0.113,0.244,0.253,0.317,0.421l3.362,10.076c0.072,0.211,0.14,0.438,0.201,0.683
			c0.063,0.244,0.119,0.5,0.17,0.77c0.051-0.27,0.1-0.525,0.147-0.77c0.047-0.244,0.1-0.472,0.158-0.683l2.937-10.076
			c0.044-0.16,0.144-0.299,0.3-0.415c0.157-0.116,0.341-0.175,0.552-0.175H205.453z"/>
	</g>
</g>
</svg>
