<?xml version="1.0" encoding="utf-8"?>
<svg version="1.1" id="Layer_1" x="0px" y="0px" viewBox="0 0 299.2 358.3" style="enable-background:new 0 0 299.2 358.3;" xmlns="http://www.w3.org/2000/svg">
  <style type="text/css">
	.st0{fill-rule:evenodd;clip-rule:evenodd;fill:#D52028;}
</style>
  <g>
    <path class="st0" d="M240.8,43c10.8,0,19.7,8.6,19.7,19.2c0,10.6-8.9,19.2-19.7,19.2c-10.9,0-19.7-8.6-19.7-19.2 C221.1,51.7,229.9,43,240.8,43L240.8,43z M125.1,43.4c10.8,0,19.7,8.6,19.7,19.2c0,10.6-8.8,19.2-19.7,19.2 c-10.9,0-19.7-8.6-19.7-19.2C105.4,52,114.2,43.4,125.1,43.4L125.1,43.4L125.1,43.4z M241.3,185.9c10.8,0,19.7,8.6,19.7,19.2 c0,10.6-8.8,19.2-19.7,19.2c-10.8,0-19.7-8.6-19.7-19.2C221.6,194.5,230.5,185.9,241.3,185.9L241.3,185.9L241.3,185.9z M125,185.2 c10.9,0,19.7,8.6,19.7,19.2c0,10.6-8.9,19.2-19.7,19.2c-10.8,0-19.7-8.6-19.7-19.2C105.3,193.8,114.1,185.2,125,185.2L125,185.2 L125,185.2z M188.3,140.3l-10.5,0l0-27c-0.5-15.7-7-26.3-24.1-24.7l-17.5,0.3l-11.4,33.3l-10.6-33l-22,0.3 c-15.5-0.5-20.4,12.9-19.8,26.4l0.3,24.6c-88.4,5.7-94.7,141-0.2,146l0.2,21h105l0-20.9l11.1,0l0.1,19.6h105l0.1-48.9 c-0.5-14.4-7-24.1-24.1-22.6l-61.5,0.8c-15.5-0.5-20.4,11.8-19.8,24.1l0.1,15.2l-11,0.1l0-17.8c-0.5-14.6-7-24.6-24.1-23l-61.5,0.8 c-15.5-0.5-20.4,12-19.8,24.6l0.1,16C-9,271.4-2.5,152.4,77.6,152l110.9,0v0.1h105l0-38.5c-0.5-16.7-7-28-24.1-26.2L252,87.7 L240.6,123l-10.6-35l-22,0.3c-15.5-0.6-20.4,13.7-19.8,28L188.3,140.3L188.3,140.3L188.3,140.3z" style="fill: rgb(13, 23, 32);"/>
  </g>
</svg>