<?xml version="1.0" encoding="utf-8"?>
<!-- Generator: Adobe Illustrator 21.1.0, SVG Export Plug-In . SVG Version: 6.00 Build 0)  -->
<svg version="1.1" id="Layer_1" xmlns="http://www.w3.org/2000/svg" xmlns:xlink="http://www.w3.org/1999/xlink" x="0px" y="0px"
	 viewBox="0 0 512 512" style="enable-background:new 0 0 512 512;" xml:space="preserve">
<style type="text/css">
	.st0{fill:#FFFFFF;}
</style>
<g>
	<g>
		<path class="st0" d="M32,448V64c0-17.7,14.4-32,32-32h320c17.7,0,32,14.3,32,32v188.1l32-32V64c0-35.3-28.7-64-64-64H64
			C28.7,0,0,28.7,0,64v384c0,35.3,28.7,64,64,64h176v-32H64C46.4,480,32,465.7,32,448z M352,96H96v32h256V96z M352,160H96v32h256
			V160z M352,224H96v32h256V224z M96,320h128v-32H96V320z"/>
	</g>
</g>
<g>
	<path class="st0" d="M387.6,364.5c7.2,2,14.3,4.2,21.5,6.6c7.1,2.4,13.5,5.5,19.1,9.3c5.6,3.8,10.2,8.5,13.7,14.2
		c3.5,5.7,5.2,12.8,5.2,21.3c0,8.4-1.6,16.3-4.7,23.7c-3.1,7.4-7.7,13.9-13.7,19.6c-6,5.7-13.3,10.3-22,13.9
		c-8.7,3.6-18.7,5.7-29.8,6.3l-1.8,20c-0.1,2.1-1.1,4-2.9,5.8c-1.9,1.8-4.2,2.7-7,2.7h-13.7l2.7-29.1c-11.7-1.4-22.7-4.3-33-8.7
		c-10.3-4.3-19-9.7-26.2-16.2l11.4-15.4c1-1.4,2.3-2.5,4-3.3c1.7-0.9,3.4-1.3,5.3-1.3c2.2,0,4.5,0.7,7,2.1c2.5,1.4,5.3,3,8.5,4.9
		c3.2,1.9,6.8,3.7,11,5.6c4.1,1.9,8.9,3.3,14.5,4.2l5.6-60.8c-7.1-1.8-14.1-3.9-21.1-6.4c-7-2.4-13.2-5.7-18.8-9.7
		c-5.5-4-10-9.1-13.4-15.3c-3.4-6.2-5.1-13.9-5.1-23.1c0-6.9,1.5-13.6,4.5-20.2c3-6.6,7.4-12.4,13.3-17.6c5.8-5.2,13-9.4,21.5-12.8
		c8.5-3.4,18.2-5.3,29.2-5.7l1.7-17.1c0.2-2.2,1.2-4.1,3-5.8c1.8-1.7,4.1-2.6,7-2.6H398l-2.4,26.6c10.6,1.5,19.7,4.3,27.5,8.2
		c7.7,3.9,14.3,8.4,20,13.3l-9,12.4c-1.3,1.8-2.7,3.2-4,4.1c-1.4,0.9-3.1,1.4-5.1,1.4c-1.5,0-3.3-0.4-5.4-1.3
		c-2.1-0.9-4.5-1.9-7.1-3.1c-2.6-1.2-5.5-2.5-8.8-3.7c-3.3-1.3-6.8-2.3-10.7-3.1L387.6,364.5z M370,307.5
		c-5.6,0.6-10.3,1.7-14.2,3.2c-3.9,1.5-7.1,3.3-9.6,5.5c-2.5,2.2-4.3,4.6-5.5,7.3c-1.2,2.7-1.7,5.6-1.7,8.6c0,3.4,0.7,6.5,2,9
		c1.3,2.6,3.2,4.9,5.5,6.9c2.3,2,5.1,3.9,8.3,5.4c3.2,1.6,6.7,3.1,10.5,4.4L370,307.5z M379.7,451.2c10.6-1.3,18.6-4.5,24.1-9.7
		c5.4-5.2,8.2-12,8.2-20.5c0-3.4-0.7-6.5-2-9c-1.3-2.6-3.3-4.9-5.7-6.9c-2.5-2-5.3-3.7-8.6-5.2c-3.3-1.4-6.9-2.8-10.8-4.1
		L379.7,451.2z"/>
</g>
</svg>
