<?xml version="1.0" encoding="utf-8"?>
<svg version="1.1" id="Layer_1" x="0px" y="0px" viewBox="0 0 299.2 358.3" style="enable-background:new 0 0 299.2 358.3;" xmlns="http://www.w3.org/2000/svg">
  <style type="text/css">
	.st0{fill:#D52028;}
</style>
  <g>
    <path class="st0" d="M253.9,76.1c-53-53-138.9-53-191.8,0C14,124.2,9.5,199.4,48.8,252.5c-1.9,1-3.7,2.3-5.3,3.9l-33.2,33.2 c-8.3,8.3-8.3,21.8,0,30.1c8.3,8.3,21.8,8.3,30.1,0l33.2-33.2c1.6-1.6,2.9-3.4,3.9-5.3c53.1,39.2,128.3,34.8,176.4-13.3 C306.9,215,306.9,129.1,253.9,76.1z M235,249.1c-42.6,42.6-111.6,42.6-154.2,0c-42.6-42.6-42.6-111.6,0-154.2 c42.6-42.6,111.6-42.6,154.2,0C277.6,137.5,277.6,206.5,235,249.1z" style="fill: rgb(13, 23, 32);"/>
    <path class="st0" d="M131.1,183.9h-17.6c-2.2,0-3.9,1.8-3.9,3.9V232c0,2.2,1.8,3.9,3.9,3.9h17.6c2.2,0,3.9-1.8,3.9-3.9v-44.2 C135,185.7,133.2,183.9,131.1,183.9z" style="fill: rgb(13, 23, 32);"/>
    <path class="st0" d="M164.3,145.1h-17.6c-2.2,0-3.9,1.8-3.9,3.9v83c0,2.2,1.8,3.9,3.9,3.9h17.6c2.2,0,3.9-1.8,3.9-3.9v-83 C168.2,146.9,166.5,145.1,164.3,145.1z" style="fill: rgb(13, 23, 32);"/>
    <path class="st0" d="M101.3,201.5H83.7c-2.2,0-3.9,1.8-3.9,3.9V232c0,2.2,1.8,3.9,3.9,3.9h17.6c2.2,0,3.9-1.8,3.9-3.9v-26.6 C105.2,203.2,103.5,201.5,101.3,201.5z" style="fill: rgb(13, 23, 32);"/>
    <path class="st0" d="M197.6,164.5H180c-2.2,0-3.9,1.8-3.9,3.9V232c0,2.2,1.8,3.9,3.9,3.9h17.6c2.2,0,3.9-1.8,3.9-3.9v-63.6 C201.5,166.3,199.8,164.5,197.6,164.5z" style="fill: rgb(13, 23, 32);"/>
    <path class="st0" d="M229.7,125.2h-17.6c-2.2,0-3.9,1.8-3.9,3.9V232c0,2.2,1.8,3.9,3.9,3.9h17.6c2.2,0,3.9-1.8,3.9-3.9V129.1 C233.6,126.9,231.8,125.2,229.7,125.2z" style="fill: rgb(13, 23, 32);"/>
  </g>
</svg>