<?xml version="1.0" encoding="utf-8"?>
<svg version="1.1" id="Layer_1" x="0px" y="0px" viewBox="0 0 299.2 358.3" style="enable-background:new 0 0 299.2 358.3;" xmlns="http://www.w3.org/2000/svg">
  <style type="text/css">
	.st0{fill:#D52028;}
</style>
  <g>
    <path class="st0" d="M219.5,298.2h-34.8h-35.2h-35.2H79.5c-10.7,0-19.4,8.7-19.4,19.4v3.2h54.2h35.2h35.2h54.2v-3.2 C238.9,307,230.2,298.2,219.5,298.2z" style="fill: rgb(13, 23, 32);"/>
    <path class="st0" d="M280.5,60.5h-27.4h-14.8V46.9h-53.6h-35.2h-35.2H60.7v13.6H45.9H18.5H6.6v11.9c0,27.9,6.8,53.5,17.8,72.1 c6,10.1,13.3,18.4,21.5,24.1c6.6,4.6,13.9,7.6,21.5,8.7c8.5,20.5,24.4,37.3,44.5,46.7v59.8h2.4h35.2h35.2h2.4V224 c20-9.4,36-26.2,44.5-46.7c7.7-1.1,14.9-4.1,21.5-8.7c8.2-5.7,15.5-13.9,21.5-24.1c11-18.7,17.8-44.2,17.8-72.1V60.5H280.5z M45.9,134.2c-0.3-0.6-0.7-1.1-1-1.7c-7.4-12.6-12.5-29.3-14-48.2h15.1h14.8v59.3c0,2.2,0.1,4.3,0.2,6.5 C55.4,146.7,50.3,141.3,45.9,134.2z M190.9,164.4l-6.2,16.7v0l-6.9-17.2l-17.8-0.8l14.2-11.9l-4.8-17.2l-19.3-12.8l-0.6,0.4 L129.6,134l-4.8,17.2l14.2,11.9l-17.8,0.8l-6.9,17.2v0l-6.2-16.7l-18.5-1.3l14-11.1L99,134l14.8,9.9l0.4-0.3l15.3-9.6l6.2-22.3 l-18.5-15.5l23.2-1l9-22.4v0l8.1,21.7l24.1,1.7l-18.2,14.4l5.9,23.5l15.3,9.6l0.5,0.3L200,134l-4.5,18l14,11.1L190.9,164.4z M254.2,132.5c-0.3,0.6-0.7,1.1-1,1.7c-4.4,7.1-9.5,12.5-15,15.9c0.2-2.1,0.2-4.3,0.2-6.5V84.3h14.8h15.1 C266.7,103.2,261.6,119.9,254.2,132.5z" style="fill: rgb(13, 23, 32);"/>
  </g>
</svg>