<?xml version="1.0" encoding="utf-8"?>
<svg version="1.1" id="Layer_1" x="0px" y="0px" viewBox="0 0 299.2 358.3" style="enable-background:new 0 0 299.2 358.3;" xmlns="http://www.w3.org/2000/svg">
  <style type="text/css">
	.st0{fill:#D52028;}
</style>
  <g>
    <rect x="114.3" y="265.4" class="st0" width="70.1" height="12.6" style="fill: rgb(13, 23, 32);"/>
    <rect x="114.3" y="284" class="st0" width="70.1" height="12.6" style="fill: rgb(13, 23, 32);"/>
    <path class="st0" d="M149.3,333c8.9,0,16-4.7,16-10.5h-32.1C133.3,328.3,140.5,333,149.3,333z" style="fill: rgb(13, 23, 32);"/>
    <path class="st0" d="M149.3,302.7h-35.1c0,6.9,8.7,12.6,16.3,12.6h18.7h18.7c7.6,0,16.3-5.6,16.3-12.6H149.3z" style="fill: rgb(13, 23, 32);"/>
    <path class="st0" d="M149.3,75C106.6,75,72,109.6,72,152.3c0,41.1,25.1,57.2,37.2,79.5c4.2,7.6,5.1,27.3,5.1,27.3h18.5v-45.2 c0-16.1-23.1-38.7-24.6-40.2c-0.6-0.5-1-1.3-1-2.2c0-1.6,1.3-2.9,2.9-2.9h7c1.6,0,2.5-1.6,4.1-5.5c1.4-3.6,3.4-8.4,8.5-8.4 c1.6,0,2.9,1.3,2.9,2.9s-1.3,2.9-2.9,2.9c-1.1,0-2,2-3.1,4.8c-1.6,3.8-3.7,9.1-9.5,9.1H117c7.7,8.3,21.6,25.4,21.6,39.4V259h10.7 h12.2c-0.2-9.2-0.5-33.8,0.1-44.4c0.6-10.7,16.5-30.8,24.4-40.3h-6.2c-1.6,0-2.9-1.3-2.9-2.9s1.3-2.9,2.9-2.9h12.5 c1.1,0,2.2,0.7,2.7,1.7c0.5,1,0.3,2.3-0.5,3.1c-7.4,8.3-26.6,31.9-27.1,41.6c-0.6,10.3-0.2,35-0.1,44h17.1c0,0,0.9-19.7,5.1-27.3 c12.1-22.3,37.2-38.4,37.2-79.5C226.7,109.6,192,75,149.3,75z M129.4,174.4c-1.6,0-2.9-1.3-2.9-2.9s1.3-2.9,2.9-2.9 c1.6,0,2.5-1.6,4.1-5.5c1.4-3.6,3.4-8.4,8.5-8.4c1.6,0,2.9,1.3,2.9,2.9s-1.3,2.9-2.9,2.9c-1.1,0-2,2-3.1,4.8 C137.4,169.1,135.2,174.4,129.4,174.4z M142,174.4c-1.6,0-2.9-1.3-2.9-2.9s1.3-2.9,2.9-2.9s2.5-1.6,4.1-5.5 c1.4-3.6,3.4-8.4,8.5-8.4c1.6,0,2.9,1.3,2.9,2.9s-1.3,2.9-2.9,2.9c-1.1,0-2,2-3.1,4.8C149.9,169.1,147.8,174.4,142,174.4z M153.8,174.4c-1.6,0-2.9-1.3-2.9-2.9s1.3-2.9,2.9-2.9c1.6,0,2.5-1.6,4.1-5.5c1.4-3.6,3.4-8.4,8.5-8.4c1.6,0,2.9,1.3,2.9,2.9 s-1.3,2.9-2.9,2.9c-1.1,0-2,2-3.1,4.8C161.7,169.2,159.5,174.4,153.8,174.4z M179,160.5c-1.1,0-2,2-3.1,4.8 c-1.6,3.8-3.7,9.1-9.5,9.1c-1.6,0-2.9-1.3-2.9-2.9s1.3-2.9,2.9-2.9c1.6,0,2.5-1.6,4.1-5.5c1.4-3.6,3.4-8.4,8.5-8.4 c1.6,0,2.9,1.3,2.9,2.9C181.9,159.2,180.6,160.5,179,160.5z" style="fill: rgb(13, 23, 32);"/>
  </g>
  <path class="st0" d="M288.3,157.5h-41.1c-3.3,0-5.9-2.6-5.9-5.9c0-3.3,2.6-5.9,5.9-5.9h41.1c3.3,0,5.9,2.6,5.9,5.9 C294.2,154.9,291.5,157.5,288.3,157.5z" style="fill: rgb(13, 23, 32);"/>
  <path class="st0" d="M50.5,157.5H9.4c-3.3,0-5.9-2.6-5.9-5.9c0-3.3,2.6-5.9,5.9-5.9h41.1c3.3,0,5.9,2.6,5.9,5.9 C56.4,154.8,53.8,157.5,50.5,157.5z" style="fill: rgb(13, 23, 32);"/>
  <path class="st0" d="M218.4,88c-1.5,0-3-0.6-4.2-1.7c-2.3-2.3-2.3-6,0-8.3l29.1-29.1c2.3-2.3,6-2.3,8.3,0c2.3,2.3,2.3,6,0,8.3 l-29.1,29.1C221.4,87.4,219.9,88,218.4,88z" style="fill: rgb(13, 23, 32);"/>
  <path class="st0" d="M50.3,256.1c-1.5,0-3-0.6-4.2-1.7c-2.3-2.3-2.3-6,0-8.3L75.2,217c2.3-2.3,6-2.3,8.3,0c2.3,2.3,2.3,6,0,8.3 l-29.1,29.1C53.3,255.5,51.8,256.1,50.3,256.1z" style="fill: rgb(13, 23, 32);"/>
  <path class="st0" d="M79.3,88c-1.5,0-3-0.6-4.2-1.7L46.1,57.2c-2.3-2.3-2.3-6,0-8.3c2.3-2.3,6-2.3,8.3,0l29.1,29.1 c2.3,2.3,2.3,6,0,8.3C82.4,87.4,80.8,88,79.3,88z" style="fill: rgb(13, 23, 32);"/>
  <path class="st0" d="M247.4,256.1c-1.5,0-3-0.6-4.2-1.7l-29.1-29.1c-2.3-2.3-2.3-6,0-8.3c2.3-2.3,6-2.3,8.3,0l29.1,29.1 c2.3,2.3,2.3,6,0,8.3C250.5,255.5,249,256.1,247.4,256.1z" style="fill: rgb(13, 23, 32);"/>
  <path class="st0" d="M148.9,64.2c-3.3,0-5.9-2.6-5.9-5.9V18.9c0-3.3,2.6-5.9,5.9-5.9c3.3,0,5.9,2.6,5.9,5.9v39.4 C154.8,61.5,152.1,64.2,148.9,64.2z" style="fill: rgb(13, 23, 32);"/>
</svg>