<?xml version="1.0" encoding="utf-8"?>
<svg version="1.1" id="Layer_1" x="0px" y="0px" viewBox="0 0 299.2 358.3" style="enable-background:new 0 0 299.2 358.3;" xmlns="http://www.w3.org/2000/svg">
  <style type="text/css">
	.st0{fill:#D52028;}
	.st1{fill:#FFFFFF;}
</style>
  <g>
    <g>
      <path class="st0" d="M203.6,215.3c4.5-4.5,7.9-1.5,8.4-1.1l-33.3-33.3l-0.1-0.1l-25.4-25.4c0,0-4.1-4.4-8.9,0.5l-61.3,61.3L0,300 l47.3,14.1l13.3,44.2L203.6,215.3z" style="fill: rgb(13, 23, 32);"/>
      <path class="st0" d="M95.6,215.3c-4.5-4.5-7.9-1.5-8.4-1.1l33.3-33.3l0.1-0.1l25.4-25.4c0,0,4.1-4.4,8.9,0.5l61.3,61.3l82.8,82.8 l-47.3,14.1l-13.3,44.2L95.6,215.3z" style="fill: rgb(13, 23, 32);"/>
    </g>
    <g>
      <path class="st0" d="M148.4,10.2c0.6,0.6,1.6,0.6,2.2,0l8.8-9c0.6-0.6,1.5-0.5,2,0.2l7.3,10.3c0.5,0.7,1.5,0.9,2.2,0.3L181,4.4 c0.7-0.5,1.6-0.3,2,0.5l5.6,11.3c0.4,0.8,1.3,1.1,2.1,0.7l11.2-5.9c0.8-0.4,1.6-0.1,1.9,0.8l3.8,12.1c0.3,0.8,1.1,1.3,2,1l12-4 c0.8-0.3,1.6,0.2,1.7,1l1.8,12.5c0.1,0.9,0.9,1.4,1.8,1.3l12.5-2.1c0.8-0.1,1.5,0.4,1.5,1.3l-0.1,12.6c0,0.9,0.7,1.6,1.5,1.5 l12.6-0.2c0.9,0,1.4,0.7,1.3,1.5L254,62.8c-0.1,0.8,0.4,1.6,1.3,1.8l12.5,1.8c0.9,0.1,1.3,0.9,1,1.7l-4,12c-0.3,0.8,0.2,1.7,1,1.9 l12.1,3.8c0.8,0.3,1.2,1.1,0.8,1.9l-5.9,11.2c-0.4,0.8-0.1,1.7,0.7,2.1l11.3,5.6c0.8,0.4,1,1.3,0.5,2l-7.5,10.1 c-0.5,0.7-0.4,1.7,0.3,2.2l10.3,7.3c0.7,0.5,0.8,1.4,0.2,2l-9,8.8c-0.6,0.6-0.6,1.6,0,2.2l9,8.8c0.6,0.6,0.5,1.5-0.2,2l-10.3,7.3 c-0.7,0.5-0.9,1.5-0.3,2.2l7.6,10.1c0.5,0.7,0.3,1.6-0.5,2l-11.3,5.6c-0.8,0.4-1.1,1.3-0.7,2.1l5.9,11.2c0.4,0.8,0.1,1.6-0.8,1.9 l-12.1,3.8c-0.8,0.3-1.3,1.1-1,2l4.1,12c0.3,0.8-0.2,1.6-1,1.7l-12.5,1.8c-0.9,0.1-1.4,0.9-1.3,1.8l2.1,12.5 c0.1,0.8-0.4,1.5-1.3,1.5l-12.6-0.1c-0.9,0-1.6,0.7-1.5,1.5l0.2,12.6c0,0.9-0.7,1.4-1.5,1.3l-12.5-2.1c-0.8-0.1-1.6,0.4-1.8,1.3 l-1.8,12.5c-0.1,0.9-0.9,1.3-1.7,1l-12-4c-0.8-0.3-1.7,0.2-1.9,1l-3.8,12.1c-0.3,0.8-1.1,1.2-1.9,0.8l-11.2-5.9 c-0.8-0.4-1.7-0.1-2.1,0.7l-5.6,11.3c-0.4,0.8-1.3,1-2,0.5l-10.1-7.5c-0.7-0.5-1.7-0.4-2.2,0.3l-7.3,10.3c-0.5,0.7-1.4,0.8-2,0.2 l-8.8-9c-0.6-0.6-1.6-0.6-2.2,0l-8.8,9c-0.6,0.6-1.5,0.5-2-0.2l-7.3-10.3c-0.5-0.7-1.5-0.9-2.2-0.3l-10.1,7.6 c-0.7,0.5-1.6,0.3-2-0.5l-5.6-11.3c-0.4-0.8-1.3-1.1-2.1-0.7l-11.2,5.9c-0.8,0.4-1.6,0.1-1.9-0.8l-3.8-12.1c-0.3-0.8-1.1-1.3-2-1 l-12,4c-0.8,0.3-1.6-0.2-1.7-1L74.2,246c-0.1-0.9-0.9-1.4-1.8-1.3l-12.5,2.1c-0.8,0.1-1.5-0.4-1.5-1.3l0.1-12.6 c0-0.9-0.7-1.6-1.5-1.5l-12.6,0.2c-0.9,0-1.4-0.7-1.3-1.5l2.1-12.5c0.1-0.8-0.4-1.6-1.3-1.8l-12.5-1.8c-0.9-0.1-1.3-0.9-1-1.7 l4-12c0.3-0.8-0.2-1.7-1-1.9l-12.1-3.8c-0.8-0.3-1.2-1.1-0.8-1.9l5.9-11.2c0.4-0.8,0.1-1.7-0.7-2.1l-11.3-5.6 c-0.8-0.4-1-1.3-0.5-2l7.5-10.2c0.5-0.7,0.4-1.7-0.3-2.2l-10.3-7.3c-0.7-0.5-0.8-1.4-0.2-2l9-8.8c0.6-0.6,0.6-1.6,0-2.2l-9-8.8 c-0.6-0.6-0.5-1.5,0.2-2L21,121c0.7-0.5,0.9-1.5,0.3-2.2l-7.6-10.1c-0.5-0.7-0.3-1.6,0.5-2l11.3-5.6c0.8-0.4,1.1-1.3,0.7-2.1 l-5.9-11.2c-0.4-0.8-0.1-1.6,0.8-1.9l12.1-3.8c0.8-0.3,1.3-1.1,1-2l-4.1-12c-0.3-0.8,0.2-1.6,1-1.7l12.5-1.8 c0.9-0.1,1.4-0.9,1.3-1.8l-2.1-12.5c-0.1-0.8,0.4-1.5,1.3-1.5l12.6,0.1c0.9,0,1.6-0.7,1.5-1.5l-0.2-12.6c0-0.9,0.7-1.4,1.5-1.3 l12.5,2.1c0.8,0.1,1.6-0.4,1.8-1.3l1.8-12.5c0.1-0.9,0.9-1.3,1.7-1l12,4c0.8,0.3,1.7-0.2,1.9-1l3.8-12.1c0.3-0.8,1.1-1.2,1.9-0.8 l11.2,5.9c0.8,0.4,1.7,0.1,2.1-0.7L116,4.9c0.4-0.8,1.3-1,2-0.5l10.2,7.5c0.7,0.5,1.7,0.4,2.2-0.3l7.3-10.3c0.5-0.7,1.4-0.8,2-0.2 L148.4,10.2z" style="fill: rgb(13, 23, 32);"/>
    </g>
    <path class="st1" d="M149.6,259.9c-66,0-119.7-53.7-119.7-119.7S83.6,20.4,149.6,20.4s119.7,53.7,119.7,119.7 S215.6,259.9,149.6,259.9z M149.6,22.6C84.8,22.6,32,75.3,32,140.1s52.7,117.5,117.5,117.5c64.8,0,117.5-52.7,117.5-117.5 S214.4,22.6,149.6,22.6z" style="fill: rgb(13, 23, 32);"/>
  </g>
  <g>
    <path class="st1" d="M145.4,218.7v-18.3c-10.5-0.2-21.4-3.4-27.7-8l4.3-12.1c6.5,4.3,15.9,7.8,26.1,7.8c12.9,0,21.5-7.4,21.5-17.7 c0-10-7.1-16.1-20.5-21.5c-18.5-7.2-29.9-15.6-29.9-31.3c0-15,10.7-26.4,27.3-29.1V70.1h11.2v17.6c10.9,0.4,18.3,3.3,23.5,6.3 l-4.5,11.9c-3.8-2.2-11.2-6.2-22.8-6.2c-13.9,0-19.2,8.3-19.2,15.6c0,9.4,6.7,14.1,22.4,20.6c18.6,7.6,28.1,17,28.1,33.1 c0,14.3-10,27.7-28.6,30.8v18.8H145.4z"/>
  </g>
</svg>