<?xml version="1.0" encoding="utf-8"?>
<svg version="1.1" id="Layer_1" x="0px" y="0px" viewBox="0 0 299.2 358.3" style="enable-background:new 0 0 299.2 358.3;" xmlns="http://www.w3.org/2000/svg">
  <style type="text/css">
	.st0{fill:#D52028;}
</style>
  <path class="st0" d="M263.2,153.8c1.1,6.7,1.7,13,1.9,18.9c3.6,2.7,7.4,5.6,11.1,8.5c6.1,4.7,14.7,11.4,19.3,13.8 C291.5,175.5,276.7,162.2,263.2,153.8L263.2,153.8z"/>
  <path class="st0" d="M186.4,98.9c-0.7,1.5-2.2,2.3-3.8,2.3c-0.6,0-1.3-0.1-1.9-0.4c-23.6-11.8-55.1-6.4-55.4-6.3 c-2.3,0.4-4.5-1.1-4.9-3.4c-0.4-2.3,1.1-4.5,3.4-4.9c1.4-0.3,34.5-6,60.7,7.1C186.6,94.3,187.5,96.9,186.4,98.9L186.4,98.9z M149.6,203.9v10.7h-10.3v-9.9c-7-0.3-13.8-2.2-17.8-4.5l3.1-12.2c4.4,2.4,10.6,4.6,17.4,4.6c6,0,10-2.3,10-6.5 c0-4-3.3-6.5-11.1-9.1c-11.2-3.8-18.8-9-18.8-19.1c0-9.2,6.5-16.4,17.7-18.6v-9.9h10.3v9.2c7,0.3,11.7,1.8,15.2,3.5l-3,11.8 c-2.7-1.2-7.5-3.6-15.1-3.6c-6.8,0-9,2.9-9,5.9c0,3.5,3.7,5.6,12.6,9c12.5,4.4,17.5,10.1,17.5,19.6 C168.2,193.8,161.6,201.8,149.6,203.9L149.6,203.9z M72.3,136.7c-4.6,0-8.4-3.8-8.4-8.4c0-4.6,3.8-8.4,8.4-8.4 c4.6,0,8.4,3.8,8.4,8.4C80.7,132.9,77,136.7,72.3,136.7L72.3,136.7z M251.2,138.1c-15.9-59-75.2-67.8-109-67.8c-10.8,0-18,1-18.1,1 c-2.2,0.3-4.2-1.1-4.7-3.2v0c-0.1,0-6.6-13.1-64.5-19.6c-0.5,1.5-0.7,5.7,1.2,12.5c3.1,11,9.3,20.4,15.2,23c1.6,0.7,2.6,2.3,2.5,4.1 c-0.1,1.8-1.3,3.3-3,3.8c-1.5,0.5-36.8,12.1-42.1,56.4c-0.2,1.8-1.5,3.2-3.2,3.6l-20.7,4.7c-1.4,22.1-1.9,47-0.3,50.7 c0.4,0.7,4.1,0.7,6.4,0.7c4.7,0,10.6,0,14.7,4.1l1.8,1.8c7.1,7.2,28.9,29.3,44,36.3c1.5,0.7,2.4,2.2,2.4,3.8v26.7H109v-11.8 c0-1.2,0.5-2.3,1.3-3.1c0.9-0.8,2-1.2,3.2-1.1c0.2,0,16.1,1.2,32.6,1.2c13.1,0,23.2-0.8,29.1-2.3c1.2-0.3,2.6,0,3.6,0.8 c1,0.8,1.6,2,1.6,3.3v13h42v-30.2c0-1.5,0.8-2.9,2.2-3.7C226.5,245.6,272.9,218.4,251.2,138.1L251.2,138.1z" style="fill: rgb(13, 23, 32);"/>
</svg>