<?xml version="1.0" encoding="utf-8"?>
<!-- Generator: Adobe Illustrator 21.1.0, SVG Export Plug-In . SVG Version: 6.00 Build 0)  -->
<svg version="1.1" id="Capa_1" xmlns="http://www.w3.org/2000/svg" xmlns:xlink="http://www.w3.org/1999/xlink" x="0px" y="0px"
	 viewBox="0 0 512 512" style="enable-background:new 0 0 512 512;" xml:space="preserve">
<style type="text/css">
	.st0{fill:#FFFFFF;}
</style>
<g>
	<g>
		<path class="st0" d="M315.4,248.8c4.3,0,8.1-1.7,10.7-4.9c3-3.5,4.1-8.5,3.2-13.9l-9.4-54.5c-0.5-3.1,1.3-8.8,3.6-11l39.6-38.6
			c5-4.9,6.8-10.8,5-16.4c-1.8-5.5-6.8-9.3-13.7-10.3l-54.7-8c-3.1-0.5-8-4-9.4-6.8l-24.5-49.6c-3.1-6.2-8.2-9.8-14-9.8
			c-5.8,0-10.9,3.6-14,9.8l-24.5,49.6c-1.4,2.8-6.2,6.3-9.4,6.8l-54.8,8c-6.9,1-11.9,4.8-13.7,10.3c-1.8,5.5,0,11.5,5,16.4
			l39.6,38.6c2.3,2.2,4.1,7.9,3.6,11l-9.4,54.5c-0.9,5.5,0.2,10.4,3.2,13.9c4.4,5.3,12.2,6.4,19.5,2.5l49-25.7
			c1-0.5,3.1-1.1,5.8-1.1s4.8,0.6,5.8,1.1l49,25.7C309.6,248,312.6,248.8,315.4,248.8z M251.9,199.9c-5.5,0-10.8,1.2-15,3.4
			l-41.7,21.9l8-46.4c1.6-9.5-2.3-21.7-9.2-28.4l-33.7-32.9l46.6-6.8c9.5-1.4,19.9-8.9,24.2-17.6l20.8-42.2l20.8,42.2
			c4.3,8.6,14.7,16.2,24.2,17.6l46.6,6.8l-33.7,32.9c-6.9,6.7-10.9,18.9-9.2,28.4l8,46.4l-41.7-21.9
			C262.7,201.1,257.4,199.9,251.9,199.9z"/>
		<path class="st0" d="M222.6,341.7l-54.8-8c-3.1-0.5-8-4-9.4-6.8L134,277.4c-3.1-6.2-8.2-9.8-14-9.8s-10.9,3.6-14,9.8L81.5,327
			c-1.4,2.9-6.2,6.4-9.4,6.8l-54.7,8c-6.9,1-11.9,4.8-13.7,10.3c-1.8,5.5,0,11.5,5,16.4L48.3,407c2.3,2.2,4.1,7.9,3.6,11l-9.4,54.5
			c-0.9,5.5,0.2,10.4,3.2,13.9c4.4,5.3,12.2,6.4,19.5,2.5l49-25.7c1-0.5,3.1-1.1,5.8-1.1c2.7,0,4.8,0.6,5.8,1.1l49,25.7
			c3,1.6,5.9,2.3,8.8,2.3c4.3,0,8.1-1.7,10.7-4.9c3-3.5,4.1-8.5,3.2-13.9L188,418c-0.5-3.1,1.3-8.8,3.6-11l39.6-38.6
			c5-4.9,6.8-10.8,5-16.4C234.5,346.5,229.5,342.7,222.6,341.7z M177.9,392.9c-6.9,6.7-10.9,19-9.2,28.4l8,46.4l-41.7-21.9
			c-4.1-2.2-9.5-3.4-15-3.4c-5.5,0-10.8,1.2-15,3.4l-41.7,21.9l8-46.4c1.6-9.5-2.3-21.7-9.2-28.4L28.3,360l46.6-6.8
			c9.5-1.4,19.9-8.9,24.2-17.6l20.8-42.2l20.8,42.2c4.3,8.6,14.7,16.2,24.2,17.6l46.6,6.8L177.9,392.9z"/>
		<path class="st0" d="M493.7,341.7l-54.8-8c-3.1-0.5-8-4-9.4-6.8L405,277.4c-3.1-6.2-8.2-9.8-14-9.8c-5.8,0-10.9,3.6-14,9.8
			L352.5,327c-1.4,2.9-6.2,6.4-9.4,6.8l-54.7,8c-6.9,1-11.9,4.8-13.7,10.3c-1.8,5.5,0,11.5,5,16.4l39.6,38.6c2.3,2.2,4.1,7.9,3.6,11
			l-9.4,54.5c-0.9,5.5,0.2,10.4,3.2,13.9c4.4,5.3,12.1,6.4,19.5,2.5l49-25.7c1-0.5,3.1-1.1,5.8-1.1c2.7,0,4.8,0.6,5.8,1.1l49,25.7
			c3,1.6,5.9,2.3,8.8,2.3c4.3,0,8.1-1.7,10.7-4.9c3-3.5,4.1-8.5,3.2-13.9l-9.4-54.5c-0.5-3.1,1.3-8.8,3.6-11l39.6-38.6
			c5-4.9,6.8-10.8,5-16.4C505.5,346.5,500.5,342.7,493.7,341.7z M449,392.9c-6.9,6.7-10.9,19-9.2,28.4l8,46.4L406,445.8
			c-4.1-2.2-9.5-3.4-15-3.4s-10.8,1.2-15,3.4l-41.7,21.9l8-46.4c1.6-9.5-2.3-21.7-9.2-28.4L299.4,360l46.6-6.8
			c9.5-1.4,19.9-8.9,24.2-17.6l20.8-42.2l20.8,42.2c4.3,8.6,14.7,16.2,24.2,17.6l46.6,6.8L449,392.9z"/>
	</g>
</g>
</svg>
